<svg width="34" height="34" viewBox="0 0 34 34" fill="none" xmlns="http://www.w3.org/2000/svg">
<path d="M17 34C7.61088 34 0 26.3891 0 17C0 7.61087 7.61088 0 17 0C26.3891 0 34 7.61087 34 17C34 26.3891 26.3891 34 17 34ZM17 1.84938C8.67782 1.84938 1.84937 8.67782 1.84937 17C1.84937 25.3222 8.67782 32.1506 17 32.1506C25.3222 32.1506 32.1506 25.3222 32.1506 17C32.1506 8.67782 25.3222 1.84938 17 1.84938Z" fill="#E6EEFA"/>
<path d="M17.3557 26.7448L7.6109 17L17.3557 7.25522L18.636 8.6067L10.3138 17L18.636 25.3933L17.3557 26.7448Z" fill="#E6EEFA"/>
<path d="M8.96234 16.0042H26.0335V17.9958H8.96234V16.0042Z" fill="#E6EEFA"/>
</svg>
