<svg width="20" height="15" viewBox="0 0 20 15" fill="none" xmlns="http://www.w3.org/2000/svg">
<g clip-path="url(#clip0_15_7)">
<path d="M2.5 2.5C1.83696 2.5 1.20107 2.76339 0.732233 3.23223C0.263392 3.70107 0 4.33696 0 5V12.5C0 13.163 0.263392 13.7989 0.732233 14.2678C1.20107 14.7366 1.83696 15 2.5 15H17.5C18.163 15 18.7989 14.7366 19.2678 14.2678C19.7366 13.7989 20 13.163 20 12.5V5C20 4.33696 19.7366 3.70107 19.2678 3.23223C18.7989 2.76339 18.163 2.5 17.5 2.5H16.035C15.372 2.49986 14.7362 2.23637 14.2675 1.7675L13.2325 0.7325C12.7638 0.263627 12.128 0.000141594 11.465 0H8.535C7.87201 0.000141594 7.23623 0.263627 6.7675 0.7325L5.7325 1.7675C5.26377 2.23637 4.62799 2.49986 3.965 2.5H2.5ZM3.125 5C2.95924 5 2.80027 4.93415 2.68306 4.81694C2.56585 4.69973 2.5 4.54076 2.5 4.375C2.5 4.20924 2.56585 4.05027 2.68306 3.93306C2.80027 3.81585 2.95924 3.75 3.125 3.75C3.29076 3.75 3.44973 3.81585 3.56694 3.93306C3.68415 4.05027 3.75 4.20924 3.75 4.375C3.75 4.54076 3.68415 4.69973 3.56694 4.81694C3.44973 4.93415 3.29076 5 3.125 5ZM14.375 8.125C14.375 9.28532 13.9141 10.3981 13.0936 11.2186C12.2731 12.0391 11.1603 12.5 10 12.5C8.83968 12.5 7.72688 12.0391 6.90641 11.2186C6.08594 10.3981 5.625 9.28532 5.625 8.125C5.625 6.96468 6.08594 5.85188 6.90641 5.03141C7.72688 4.21094 8.83968 3.75 10 3.75C11.1603 3.75 12.2731 4.21094 13.0936 5.03141C13.9141 5.85188 14.375 6.96468 14.375 8.125Z" fill="black"/>
<path d="M13.25 8.125C13.25 8.9538 12.9208 9.74866 12.3347 10.3347C11.7487 10.9208 10.9538 11.25 10.125 11.25C9.2962 11.25 8.50134 10.9208 7.91529 10.3347C7.32924 9.74866 7 8.9538 7 8.125C7 7.2962 7.32924 6.50134 7.91529 5.91529C8.50134 5.32924 9.2962 5 10.125 5C10.9538 5 11.7487 5.32924 12.3347 5.91529C12.9208 6.50134 13.25 7.2962 13.25 8.125Z" fill="black"/>
</g>
<defs>
<clipPath id="clip0_15_7">
<rect width="20" height="15" fill="white"/>
</clipPath>
</defs>
</svg>
