<!DOCTYPE svg PUBLIC "-//W3C//DTD SVG 1.1//EN" "http://www.w3.org/Graphics/SVG/1.1/DTD/svg11.dtd">
<!-- Uploaded to: SVG Repo, www.svgrepo.com, Transformed by: SVG Repo Mixer Tools -->
<svg width="64px" height="64px" viewBox="0 0 24 24" fill="none" xmlns="http://www.w3.org/2000/svg">
<g id="SVGRepo_bgCarrier" stroke-width="0"/>
<g id="SVGRepo_tracerCarrier" stroke-linecap="round" stroke-linejoin="round"/>
<g id="SVGRepo_iconCarrier"> <path d="M18.5 19H19C20.1046 19 21 18.1046 21 17L21 7C21 5.89543 20.1046 5 19 5H17.3284C16.798 5 16.2893 4.78929 15.9142 4.41421L15.0858 3.58579C14.7107 3.21071 14.202 3 13.6716 3H10.3284C9.79799 3 9.28929 3.21071 8.91421 3.58579L8.08579 4.41421C7.71071 4.78929 7.20201 5 6.67157 5H5C3.89543 5 3 5.89543 3 7V17C3 18.1046 3.89543 19 5 19H11C13.2091 19 15 17.2091 15 15C15 12.7909 13.2091 11 11 11H8M8 11L10 9M8 11L10 13" stroke="#000000" stroke-width="2" stroke-linecap="round" stroke-linejoin="round"/> </g>
</svg>