<svg width="30" height="30" viewBox="0 0 30 30" fill="none" xmlns="http://www.w3.org/2000/svg">
<path d="M28.0778 15.0701C27.8324 15.8342 27.4727 16.5566 27.0108 17.2128C26.5423 17.891 25.9783 18.4979 25.3363 19.0146L15.8523 26.6886C15.6114 26.8905 15.307 27.0008 14.9928 27C14.6831 26.9952 14.3836 26.8884 14.1407 26.696L4.65671 19.022C3.37335 18.001 2.41968 16.6237 1.91523 15.0626C1.41186 13.4728 1.36519 11.7734 1.78048 10.1582C2.19578 8.54309 3.05634 7.07727 4.26401 5.92798C5.3795 4.87312 6.77673 4.16459 8.28644 3.88823C9.79616 3.61187 11.3536 3.77954 12.77 4.37093C13.6272 4.7418 14.3878 5.30499 14.9928 6.01695C15.5958 5.30281 16.3569 4.73922 17.2156 4.37093C18.6358 3.77327 20.1992 3.60225 21.7149 3.87874C23.2306 4.15524 24.6331 4.86728 25.7512 5.92798C26.9564 7.08036 27.8136 8.54857 28.225 10.1651C28.6364 11.7815 28.5854 13.4812 28.0778 15.0701Z" fill="#FFFFFF"/>
</svg>
