<svg width="15" height="18" viewBox="0 0 15 18" fill="none" xmlns="http://www.w3.org/2000/svg">
<path d="M7.01881 17.9999C7.31455 17.992 7.59836 17.8639 7.82003 17.6382C8.04169 17.4126 8.18694 17.1038 8.23007 16.7667H5.76059C5.80494 17.113 5.95699 17.429 6.18843 17.6558C6.41988 17.8827 6.71497 18.0049 7.01881 17.9999Z" fill="black"/>
<path d="M13.9906 14.6735L13.831 14.5113C13.3781 14.0465 12.9818 13.5134 12.6526 12.9266C12.2931 12.1167 12.0776 11.2322 12.0188 10.325V7.65317C12.0169 7.32863 11.9917 7.00482 11.9437 6.68503C11.1484 6.49673 10.4341 5.99761 9.92159 5.27219C9.40912 4.54676 9.12998 3.6396 9.13145 2.7043V2.36355C8.64128 2.08565 8.11463 1.90291 7.57277 1.82269V1.14121C7.57277 0.949709 7.50673 0.766053 7.38919 0.630642C7.27165 0.495232 7.11223 0.419159 6.94601 0.419159C6.77978 0.419159 6.62036 0.495232 6.50282 0.630642C6.38528 0.766053 6.31925 0.949709 6.31925 1.14121V1.84974C5.10597 2.04691 3.99557 2.7431 3.19306 3.80978C2.39055 4.87646 1.95011 6.2416 1.95305 7.65317V10.325C1.89425 11.2322 1.67877 12.1167 1.31925 12.9266C0.995719 13.512 0.605725 14.0449 0.159624 14.5113L0 14.6735V16.1988H13.9906V14.6735Z" fill="black"/>
<path d="M12.6526 5.40861C13.949 5.40861 15 4.19785 15 2.7043C15 1.21076 13.949 0 12.6526 0C11.3562 0 10.3052 1.21076 10.3052 2.7043C10.3052 4.19785 11.3562 5.40861 12.6526 5.40861Z" fill="black"/>
</svg>
