<svg width="30" height="30" viewBox="0 0 30 30" fill="none" xmlns="http://www.w3.org/2000/svg">
<path d="M8.59203 15.0629C8.61604 15.547 8.49424 16.0272 8.24239 16.4414C7.99054 16.8556 7.62022 17.1847 7.17932 17.3862C6.73842 17.5877 6.24722 17.6522 5.76923 17.5715C5.29124 17.4908 4.84846 17.2686 4.49813 16.9335C4.14781 16.5985 3.90606 16.1661 3.80415 15.6921C3.70223 15.2182 3.74484 14.7246 3.92646 14.2752C4.10808 13.8258 4.42036 13.4411 4.82291 13.1711C5.22547 12.901 5.69979 12.7579 6.18453 12.7603C6.49931 12.7297 6.817 12.7673 7.11589 12.8707C7.41478 12.9741 7.68784 13.1408 7.9164 13.3594C8.14497 13.578 8.32366 13.8433 8.44026 14.1373C8.55686 14.4313 8.60863 14.747 8.59203 15.0629Z" fill="#FFFFFF"/>
<path d="M17.337 15.0629C17.361 15.547 17.2392 16.0272 16.9874 16.4414C16.7355 16.8556 16.3652 17.1847 15.9243 17.3862C15.4834 17.5877 14.9922 17.6522 14.5142 17.5715C14.0362 17.4908 13.5935 17.2686 13.2431 16.9335C12.8928 16.5985 12.6511 16.1661 12.5491 15.6921C12.4472 15.2182 12.4898 14.7246 12.6715 14.2752C12.8531 13.8258 13.1654 13.4411 13.5679 13.1711C13.9705 12.901 14.4448 12.7579 14.9295 12.7603C15.2443 12.7297 15.562 12.7673 15.8609 12.8707C16.1598 12.9741 16.4328 13.1408 16.6614 13.3594C16.89 13.578 17.0687 13.8433 17.1853 14.1373C17.3019 14.4313 17.3536 14.747 17.337 15.0629Z" fill="#FFFFFF"/>
<path d="M26.082 15.0629C26.106 15.547 25.9842 16.0272 25.7324 16.4414C25.4805 16.8556 25.1102 17.1847 24.6693 17.3862C24.2284 17.5877 23.7372 17.6522 23.2592 17.5715C22.7813 17.4908 22.3385 17.2686 21.9881 16.9335C21.6378 16.5985 21.3961 16.1661 21.2942 15.6921C21.1922 15.2182 21.2348 14.7246 21.4165 14.2752C21.5981 13.8258 21.9104 13.4411 22.3129 13.1711C22.7155 12.901 23.1898 12.7579 23.6745 12.7603C23.9893 12.7297 24.307 12.7673 24.6059 12.8707C24.9048 12.9741 25.1778 13.1408 25.4064 13.3594C25.635 13.578 25.8137 13.8433 25.9303 14.1373C26.0469 14.4313 26.0986 14.747 26.082 15.0629Z" fill="#FFFFFF"/>
</svg>
