<svg width="30" height="30" viewBox="0 0 30 30" fill="none" xmlns="http://www.w3.org/2000/svg">
<path d="M25.4251 5.7825V25.08C25.4277 25.3635 25.3475 25.6415 25.1943 25.88C25.041 26.1185 24.8215 26.3071 24.5626 26.4225C24.3685 26.5165 24.1557 26.5652 23.9401 26.565C23.5877 26.5615 23.2478 26.434 22.9801 26.205L15.3376 19.65L7.69505 26.205C7.42727 26.434 7.0874 26.5615 6.73505 26.565C6.51944 26.5652 6.30661 26.5165 6.11256 26.4225C5.85364 26.3071 5.63407 26.1185 5.48084 25.88C5.32762 25.6415 5.24742 25.3635 5.25006 25.08V5.7825C5.25006 5.24345 5.46419 4.72647 5.84536 4.3453C6.22653 3.96414 6.7435 3.75 7.28256 3.75H23.3925C23.9316 3.75 24.4486 3.96414 24.8297 4.3453C25.2109 4.72647 25.4251 5.24345 25.4251 5.7825Z" fill="#FFFFFF"/>
</svg>
