<svg width="30" height="28" viewBox="0 0 30 28" fill="none" xmlns="http://www.w3.org/2000/svg">
<path d="M28.3944 4.54303C28.3385 4.43938 28.2528 4.35236 28.1468 4.29175C28.0408 4.23115 27.9187 4.19939 27.7944 4.20003H2.1744C2.03629 4.19869 1.90122 4.23782 1.7882 4.31192C1.67518 4.38601 1.58991 4.49132 1.5444 4.61303C1.49508 4.73359 1.48663 4.86537 1.52016 4.99057C1.55369 5.11576 1.62759 5.22832 1.7319 5.31303L10.7319 12.502V25.235C10.7327 25.3672 10.7781 25.4958 10.8616 25.6026C10.945 25.7093 11.0623 25.7889 11.1969 25.83C11.2665 25.84 11.3373 25.84 11.4069 25.83C11.5117 25.83 11.615 25.8073 11.7088 25.7635C11.8025 25.7198 11.884 25.6563 11.9469 25.578L28.3119 5.18003C28.3848 5.09016 28.4309 4.98384 28.4454 4.87193C28.4599 4.76002 28.4423 4.64653 28.3944 4.54303ZM3.99691 5.46703H24.8469L11.5194 11.466L3.99691 5.46703ZM12.0969 12.6L25.5969 6.51703L12.0969 23.317V12.6Z" fill="#FFFFFF"/>
</svg>
